<?xml version="1.0" encoding="utf-8"?>
<!-- Generator: Adobe Illustrator 24.2.3, SVG Export Plug-In . SVG Version: 6.00 Build 0)  -->
<svg version="1.1" id="Camada_1" xmlns="http://www.w3.org/2000/svg" xmlns:xlink="http://www.w3.org/1999/xlink" x="0px" y="0px"
	 viewBox="0 0 512 512" style="enable-background:new 0 0 512 512;" xml:space="preserve">
<style type="text/css">
	.st0{fill-rule:evenodd;clip-rule:evenodd;fill:#FFFFFF;}
</style>
<path class="st0" d="M239.56,340.65c-4.83-1.6-11.23-4.8-16.03-6.4c-9.4-8.52-23.54-9.15-33.65-1.48
	c12.67,12.4,28.01,21.73,44.85,27.28c59.28,19.25,125.07-14.54,145.8-73.79c19.3-61.09-14.33-126.31-75.3-146.01
	c-28.56-9.26-59.61-6.97-86.5,6.37l8,17.45c22.42-11.23,48.05-12.83,73.7-4.8c49.65,16.03,76.9,70.59,60.87,120.32
	S290.81,356.7,239.56,340.65z"/>
<path class="st0" d="M462.67,280.09c0-9.63-0.44-40.72-2.04-50.29C446.27,125.02,349.68,51.73,244.9,66.1
	c-0.18,0.02-0.36,0.05-0.54,0.08C140.24,80.6,66.54,178.61,80.96,282.77c6.31,50.72,34.55,95.17,72.31,124.08l-11.43,14.16
	l36.82,3.2l37,1.63l-9.6-35.31l-9.63-35.31L184.8,369c-29.59-22.77-49.52-55.86-55.78-92.66c-9.63-78.53,44.85-150.81,121.75-162.06
	c78.53-9.6,150.6,43.34,160.2,121.95c1.6,19.25,4.8,38.51,0,61.08c-8,28.88,14.54,61.08,68.9,93.07
	c14.4-20.85,14.4-20.85,19.23-43.31C454.15,313.25,462.53,303.39,462.67,280.09z"/>
<path class="st0" d="M374.84,409.64l16.72,12.19c-35.97,28.44-80.6,43.71-126.46,43.25c-115.35,0-209.88-94.67-209.88-208.57
	c0-115.53,94.53-210.2,209.88-210.2c12.8,0,38.45,3.2,38.45,3.2s53.37,10.82,68.87-20.85C339.12,11.91,302.38,3.13,265.1,3
	C125.81,3,12.06,116.9,12.06,256.5c0,137.98,113.75,251.88,253.04,251.88c59.86-0.29,117.7-21.73,163.28-60.53l16.87,11.63v-73.9
	l-35.16,11.17L374.84,409.64z"/>
</svg>
